<?xml version="1.0" encoding="utf-8"?>
<!-- Generator: Adobe Illustrator 16.2.1, SVG Export Plug-In . SVG Version: 6.00 Build 0)  -->
<!DOCTYPE svg PUBLIC "-//W3C//DTD SVG 1.1//EN" "http://www.w3.org/Graphics/SVG/1.1/DTD/svg11.dtd">
<svg version="1.1" id="レイヤー_1" xmlns="http://www.w3.org/2000/svg" xmlns:xlink="http://www.w3.org/1999/xlink" x="0px"
	 y="0px" width="200px" height="70px" viewBox="0 0 200 70" enable-background="new 0 0 200 70" xml:space="preserve">
<g>
	<polygon fill="none" points="146.749,37.175 150.767,32.102 142.767,32.102 	"/>
	<path d="M169.872,40.015c0-2.436,1.976-4.41,4.411-4.41c2.437,0,4.412,1.975,4.412,4.41c0,1.349-0.604,2.553-1.556,3.361
		c0.686,0.068,1.385,0.145,2.099,0.227c0.731-1.008,1.163-2.247,1.163-3.588c0-3.378-2.739-6.117-6.118-6.117
		c-3.378,0-6.117,2.739-6.117,6.117c0,1.004,0.242,1.952,0.671,2.788c0.682,0.025,1.385,0.058,2.111,0.097
		C170.277,42.126,169.872,41.118,169.872,40.015z"/>
	<path d="M157.227,42.675c0.188-2.263,2.082-4.04,4.395-4.04c2.326,0,4.231,1.801,4.398,4.085c0.552,0.011,1.122,0.024,1.712,0.043
		c-0.147-3.247-2.827-5.835-6.11-5.835c-3.144,0-5.734,2.373-6.078,5.425c0.403,0.183,0.874,0.301,1.423,0.318
		C157.047,42.673,157.135,42.674,157.227,42.675z"/>
	<path fill="#D80C18" d="M161.621,38.635c-2.312,0-4.206,1.777-4.394,4.04c0.53,0.012,1.237,0.012,2.099,0.013
		c1.761,0.001,4.004-0.022,6.693,0.032C165.853,40.436,163.947,38.635,161.621,38.635z"/>
	<path d="M137.202,43.932c0,0.925-1.048,1.227-1.925,1.285v1.647c1.817-0.086,3.643-0.892,3.643-2.933
		c0-1.596,0.021-11.727,0.021-11.828l-0.889-0.002h-0.829C137.223,32.25,137.202,42.338,137.202,43.932z"/>
	<path d="M179.237,43.603c-0.713-0.082-1.413-0.158-2.099-0.227c-2.213-0.221-4.28-0.373-6.191-0.477
		c-0.726-0.039-1.43-0.071-2.111-0.097c-0.375-0.016-0.743-0.028-1.104-0.039c-0.589-0.02-1.16-0.032-1.712-0.044
		c-2.689-0.054-4.933-0.031-6.693-0.031c-0.861-0.001-1.568-0.002-2.099-0.013c-0.093-0.002-0.18-0.003-0.261-0.005
		c-0.55-0.018-1.021-0.136-1.423-0.318c-1.381-0.625-1.961-2.014-2.128-2.753c-0.353-1.564-1.471-7.422-1.369-7.386l-0.028-0.112
		h-1.251l-4.019,5.073l-3.981-5.073h-1.27l-1.232,9.632h1.729l0.808-7.254l3.583,4.896h0.669l3.736-4.901
		c0.355,1.772,0.865,4.307,1.093,5.315c0.141,0.625,0.506,1.828,1.371,2.851c0.64,0.757,1.44,1.279,2.357,1.546
		c0.412,0.119,0.848,0.188,1.304,0.201c0.152,0.005,0.322,0.008,0.508,0.011c0.513,0.007,1.149,0.007,1.902,0.008
		c1.723,0.001,3.892-0.028,6.488,0.014c0.566,0.01,1.154,0.022,1.762,0.04c0.832,0.022,1.704,0.056,2.613,0.1
		c2.253,0.107,4.739,0.283,7.45,0.571c3.957,0.42,8.395,1.076,13.291,2.099v-1.754C186.706,44.613,182.798,44.016,179.237,43.603z"
		/>
	<polygon fill="#E1003B" points="137.224,32.102 138.052,32.102 137.224,32.101 	"/>
	<g>
		<path fill="#428AB7" d="M161.621,47.457c-1.4,0-2.649-0.654-3.456-1.673c-0.494-0.002-0.913-0.007-1.25-0.017
			c-0.278-0.009-0.551-0.037-0.814-0.086c0.984,2.059,3.087,3.481,5.521,3.481c2.377,0,4.437-1.356,5.449-3.337
			c-0.693-0.018-1.358-0.028-1.997-0.036C164.266,46.806,163.02,47.457,161.621,47.457z"/>
		<path fill="#7EBBE1" d="M159.325,45.786c-0.424,0-0.811,0-1.16-0.002c0.807,1.019,2.056,1.673,3.456,1.673
			c1.399,0,2.645-0.651,3.452-1.667C162.802,45.763,160.881,45.787,159.325,45.786z"/>
	</g>
	<g>
		<path d="M187.146,42.54c-2.436,0-4.411-1.975-4.411-4.41c0-2.437,1.975-4.412,4.411-4.412c1.502,0,2.826,0.75,3.623,1.896
			l1.221-1.221c-1.119-1.448-2.872-2.381-4.844-2.381c-3.379,0-6.118,2.738-6.118,6.117s2.739,6.118,6.118,6.118
			c1.966,0,3.714-0.928,4.834-2.369l-1.221-1.22C189.961,41.796,188.641,42.54,187.146,42.54z"/>
	</g>
</g>
<text transform="matrix(1 0 0 1 135.0122 26.333)" font-family="'メイリオ','Meiryo','ヒラギノ角ゴ ProN W3','Hiragino Kaku Gothic ProN','ＭＳ Ｐゴシック', 'MS P Gothic', Verdana, Arial, Helvetica, sans-serif;" font-size="10">Certified by</text>
<g>
	<g>
		<path fill="#717071" d="M118.086,50.573c-0.572,0.681-1.426,1.119-2.383,1.119c-1.139,0-2.133-0.614-2.681-1.527
			c-0.281-0.467-0.446-1.016-0.446-1.604c0-0.439,0.093-0.855,0.259-1.237c0.055-0.124,0.119-0.247,0.188-0.366
			c0.139-0.227,0.305-0.438,0.49-0.621c0.566-0.557,1.337-0.901,2.192-0.901c0.957,0,1.81,0.438,2.382,1.119
			c0.207-0.477,0.479-0.916,0.82-1.307c0.022-0.026,0.047-0.047,0.069-0.072c-0.376-0.363-0.808-0.667-1.287-0.892
			c-0.605-0.282-1.277-0.441-1.985-0.441c-0.532,0-1.044,0.09-1.522,0.253c-0.708,0.243-1.336,0.655-1.85,1.182
			c-0.062,0.063-0.127,0.125-0.185,0.19c-0.379,0.436-0.679,0.938-0.877,1.489c-0.046,0.126-0.085,0.254-0.121,0.384
			c-0.016,0.057-0.027,0.113-0.041,0.172c-0.08,0.339-0.125,0.688-0.125,1.048c0,0.364,0.045,0.714,0.125,1.051
			c0.046,0.189,0.096,0.374,0.161,0.553c0.2,0.553,0.5,1.058,0.877,1.49c0.058,0.068,0.123,0.13,0.185,0.192
			c0.514,0.526,1.143,0.939,1.85,1.183c0.479,0.163,0.989,0.253,1.522,0.253c0.708,0,1.38-0.159,1.985-0.443
			c0.479-0.224,0.91-0.526,1.287-0.89c-0.022-0.025-0.048-0.047-0.069-0.071C118.566,51.487,118.294,51.048,118.086,50.573"/>
		<path fill="#717071" d="M107.843,43.845c-1.419,0-2.69,0.631-3.556,1.626c-0.379,0.435-0.678,0.938-0.877,1.487
			c-0.181,0.503-0.284,1.042-0.284,1.605s0.104,1.104,0.284,1.602c0.201,0.554,0.5,1.058,0.877,1.489
			c0.865,0.995,2.136,1.629,3.556,1.629c2.603,0,4.721-2.119,4.721-4.722C112.563,45.962,110.445,43.845,107.843,43.845
			 M107.843,51.693c-1.138,0-2.132-0.614-2.682-1.526c-0.281-0.468-0.445-1.017-0.445-1.603c0-0.588,0.164-1.134,0.445-1.604
			c0.549-0.91,1.543-1.522,2.682-1.522c1.724,0,3.127,1.403,3.127,3.127C110.969,50.289,109.568,51.693,107.843,51.693"/>
		<path fill="#717071" d="M100.005,43.845c-1.418,0-2.689,0.631-3.555,1.626c-0.378,0.435-0.677,0.938-0.876,1.487
			c-0.182,0.503-0.286,1.042-0.286,1.605s0.105,1.104,0.286,1.602c0.199,0.554,0.499,1.058,0.876,1.489
			c0.866,0.995,2.137,1.629,3.555,1.629c2.603,0,4.721-2.119,4.721-4.722C104.726,45.962,102.607,43.845,100.005,43.845
			 M100.005,51.693c-1.137,0-2.132-0.614-2.679-1.526c-0.282-0.468-0.446-1.017-0.446-1.603c0-0.588,0.164-1.134,0.446-1.604
			c0.547-0.91,1.542-1.522,2.679-1.522c1.726,0,3.128,1.403,3.128,3.127C103.133,50.289,101.73,51.693,100.005,51.693"/>
		<path fill="#717071" d="M91.826,43.952c-1.726,0-3.246,0.895-4.125,2.247c-0.877-1.352-2.398-2.247-4.124-2.247
			c-2.713,0-4.923,2.208-4.923,4.92v4.412h1.594v-4.412c0-1.834,1.492-3.327,3.329-3.327c1.835,0,3.328,1.493,3.328,3.327v4.412
			h1.594v-4.412c0-1.834,1.492-3.327,3.328-3.327c1.836,0,3.329,1.493,3.329,3.327v4.412h1.593v-4.412
			C96.749,46.159,94.541,43.952,91.826,43.952"/>
		<polygon fill="#717071" points="31.12,47.192 31.12,46.429 36.578,46.429 36.578,47.192 34.301,47.192 34.301,53.255 
			33.393,53.255 33.393,47.192 		"/>
		<path fill="#717071" d="M38.011,46.429v2.609h0.019c0.063-0.153,0.152-0.28,0.269-0.387c0.115-0.104,0.243-0.191,0.388-0.26
			c0.144-0.065,0.292-0.115,0.448-0.146c0.157-0.031,0.307-0.051,0.456-0.051c0.325,0,0.594,0.047,0.812,0.136
			c0.216,0.091,0.393,0.214,0.527,0.371c0.132,0.161,0.228,0.351,0.281,0.571c0.055,0.221,0.081,0.463,0.081,0.731v3.251h-0.812
			v-3.346c0-0.307-0.089-0.547-0.268-0.728c-0.179-0.177-0.425-0.268-0.736-0.268c-0.249,0-0.465,0.039-0.645,0.114
			c-0.183,0.075-0.334,0.187-0.455,0.324c-0.123,0.141-0.212,0.307-0.273,0.492c-0.06,0.189-0.09,0.395-0.09,0.618v2.791h-0.812
			v-6.825H38.011L38.011,46.429z"/>
		<path fill="#717071" d="M46.013,52.938c-0.37,0.28-0.835,0.422-1.395,0.422c-0.396,0-0.739-0.064-1.028-0.191
			c-0.292-0.129-0.534-0.307-0.733-0.535c-0.197-0.229-0.345-0.504-0.444-0.822c-0.099-0.318-0.155-0.666-0.167-1.041
			c0-0.376,0.058-0.721,0.172-1.033c0.115-0.312,0.276-0.582,0.482-0.812c0.207-0.229,0.453-0.407,0.736-0.536
			c0.285-0.127,0.596-0.191,0.933-0.191c0.44,0,0.805,0.093,1.095,0.274c0.29,0.183,0.522,0.41,0.698,0.694
			c0.173,0.278,0.294,0.585,0.363,0.915c0.065,0.333,0.093,0.647,0.081,0.946h-3.701c-0.007,0.218,0.019,0.425,0.078,0.618
			c0.058,0.194,0.148,0.365,0.276,0.518c0.128,0.147,0.29,0.268,0.487,0.357c0.197,0.089,0.431,0.132,0.698,0.132
			c0.343,0,0.627-0.079,0.846-0.238c0.221-0.158,0.366-0.4,0.436-0.726h0.804C46.621,52.241,46.381,52.658,46.013,52.938
			 M45.817,49.766c-0.074-0.173-0.172-0.321-0.297-0.444c-0.125-0.124-0.272-0.223-0.441-0.296c-0.167-0.073-0.355-0.11-0.559-0.11
			c-0.21,0-0.4,0.037-0.568,0.11c-0.169,0.073-0.315,0.174-0.437,0.301c-0.12,0.128-0.216,0.274-0.285,0.443
			c-0.071,0.17-0.111,0.35-0.125,0.541h2.84C45.933,50.116,45.891,49.938,45.817,49.766"/>
		<path fill="#717071" d="M53.81,52.229c-0.067,0.226-0.179,0.424-0.335,0.6c-0.156,0.175-0.363,0.314-0.622,0.421
			c-0.258,0.104-0.578,0.157-0.96,0.157c-0.636,0-1.127-0.167-1.472-0.502c-0.345-0.335-0.517-0.827-0.517-1.476v-0.421h0.906v0.286
			c0,0.196,0.016,0.379,0.047,0.544c0.031,0.167,0.088,0.309,0.168,0.431c0.08,0.122,0.191,0.214,0.336,0.282
			c0.143,0.065,0.325,0.099,0.548,0.099c0.415,0,0.699-0.109,0.856-0.333c0.154-0.221,0.235-0.522,0.235-0.898V46.43h0.907v5.123
			C53.909,51.782,53.876,52.007,53.81,52.229"/>
		<path fill="#717071" d="M59.062,53.36c-0.209,0-0.377-0.061-0.502-0.178c-0.123-0.118-0.187-0.313-0.187-0.578
			c-0.224,0.267-0.482,0.46-0.779,0.578C57.3,53.3,56.978,53.36,56.635,53.36c-0.225,0-0.435-0.024-0.632-0.074
			c-0.197-0.047-0.37-0.126-0.521-0.236c-0.15-0.11-0.268-0.256-0.354-0.432c-0.086-0.175-0.128-0.388-0.128-0.636
			c0-0.28,0.046-0.509,0.143-0.688c0.095-0.179,0.221-0.323,0.378-0.437c0.156-0.112,0.333-0.193,0.535-0.253
			c0.201-0.06,0.406-0.104,0.617-0.145c0.224-0.044,0.436-0.078,0.636-0.101c0.201-0.021,0.377-0.053,0.531-0.096
			c0.153-0.042,0.274-0.104,0.362-0.182c0.089-0.079,0.135-0.196,0.135-0.351c0-0.178-0.035-0.318-0.101-0.43
			c-0.065-0.107-0.154-0.19-0.257-0.247c-0.105-0.059-0.225-0.097-0.354-0.115c-0.13-0.02-0.259-0.028-0.386-0.028
			c-0.344,0-0.631,0.064-0.861,0.194c-0.229,0.131-0.353,0.38-0.373,0.741h-0.812c0.013-0.307,0.077-0.564,0.192-0.774
			c0.114-0.211,0.267-0.382,0.457-0.513c0.192-0.13,0.411-0.224,0.66-0.282c0.25-0.054,0.51-0.086,0.783-0.086
			c0.224,0,0.444,0.017,0.664,0.05c0.222,0.031,0.42,0.097,0.598,0.193c0.178,0.101,0.323,0.238,0.431,0.417
			c0.109,0.179,0.163,0.409,0.163,0.696v2.545c0,0.19,0.011,0.33,0.033,0.421c0.022,0.089,0.098,0.133,0.226,0.133
			c0.069,0,0.152-0.014,0.249-0.047v0.63C59.505,53.316,59.312,53.36,59.062,53.36 M57.925,50.868
			c-0.167,0.034-0.341,0.064-0.522,0.087c-0.182,0.023-0.364,0.049-0.549,0.076c-0.186,0.027-0.351,0.074-0.498,0.137
			c-0.146,0.063-0.266,0.156-0.359,0.274c-0.093,0.117-0.137,0.277-0.137,0.482c0,0.133,0.025,0.247,0.081,0.34
			c0.054,0.093,0.125,0.166,0.209,0.225c0.086,0.059,0.189,0.099,0.307,0.125c0.118,0.025,0.236,0.036,0.357,0.036
			c0.268,0,0.499-0.035,0.689-0.108c0.19-0.071,0.347-0.165,0.468-0.276c0.12-0.112,0.211-0.232,0.268-0.363
			c0.057-0.131,0.086-0.255,0.086-0.368v-0.831C58.224,50.778,58.09,50.835,57.925,50.868"/>
		<path fill="#717071" d="M61.244,48.312v0.668h0.02c0.132-0.273,0.343-0.474,0.628-0.598c0.287-0.123,0.604-0.188,0.948-0.188
			c0.382,0,0.714,0.071,0.999,0.212c0.284,0.142,0.52,0.328,0.706,0.567c0.187,0.24,0.331,0.517,0.426,0.827
			c0.095,0.312,0.144,0.645,0.144,0.994s-0.047,0.681-0.14,0.993c-0.091,0.313-0.231,0.586-0.42,0.818
			c-0.188,0.232-0.423,0.415-0.708,0.549c-0.284,0.135-0.614,0.202-0.989,0.202c-0.121,0-0.257-0.014-0.406-0.04
			c-0.149-0.024-0.298-0.065-0.443-0.124c-0.147-0.057-0.286-0.135-0.415-0.233c-0.133-0.099-0.241-0.222-0.33-0.367h-0.02v2.543
			H60.43V48.31h0.813V48.312L61.244,48.312z M64.162,50.065c-0.061-0.219-0.153-0.415-0.276-0.587
			c-0.124-0.174-0.284-0.309-0.479-0.411c-0.194-0.102-0.423-0.152-0.684-0.152c-0.273,0-0.506,0.055-0.698,0.162
			c-0.19,0.108-0.347,0.251-0.467,0.426c-0.122,0.176-0.21,0.376-0.265,0.599c-0.053,0.223-0.08,0.449-0.08,0.678
			c0,0.244,0.029,0.477,0.084,0.704c0.06,0.227,0.15,0.424,0.274,0.596c0.123,0.172,0.285,0.312,0.483,0.416
			c0.197,0.105,0.437,0.157,0.716,0.157c0.281,0,0.513-0.054,0.702-0.162c0.188-0.105,0.339-0.251,0.453-0.43
			c0.115-0.178,0.2-0.383,0.25-0.612c0.05-0.229,0.075-0.465,0.075-0.707C64.253,50.512,64.224,50.286,64.162,50.065"/>
		<path fill="#717071" d="M69.866,53.36c-0.21,0-0.377-0.061-0.502-0.178c-0.124-0.118-0.187-0.313-0.187-0.578
			c-0.224,0.267-0.483,0.46-0.779,0.578c-0.295,0.117-0.616,0.178-0.96,0.178c-0.223,0-0.433-0.024-0.631-0.074
			c-0.197-0.047-0.371-0.126-0.521-0.236c-0.149-0.11-0.267-0.256-0.354-0.432c-0.087-0.175-0.129-0.388-0.129-0.636
			c0-0.28,0.049-0.509,0.144-0.688c0.096-0.179,0.222-0.323,0.377-0.437c0.156-0.112,0.336-0.193,0.537-0.253
			c0.2-0.06,0.407-0.104,0.616-0.145c0.224-0.044,0.435-0.078,0.636-0.101c0.2-0.021,0.376-0.053,0.53-0.096
			c0.152-0.042,0.273-0.104,0.363-0.182c0.089-0.079,0.134-0.196,0.134-0.351c0-0.178-0.032-0.318-0.102-0.43
			c-0.065-0.107-0.151-0.19-0.258-0.247c-0.105-0.059-0.223-0.097-0.354-0.115c-0.13-0.02-0.259-0.028-0.385-0.028
			c-0.344,0-0.632,0.064-0.862,0.194c-0.229,0.131-0.353,0.38-0.372,0.741h-0.813c0.012-0.307,0.076-0.564,0.191-0.774
			c0.113-0.211,0.267-0.382,0.46-0.513c0.188-0.13,0.409-0.224,0.658-0.282c0.25-0.054,0.51-0.086,0.784-0.086
			c0.223,0,0.442,0.017,0.665,0.05c0.219,0.031,0.419,0.097,0.597,0.193c0.18,0.101,0.322,0.238,0.431,0.417
			c0.108,0.179,0.162,0.409,0.162,0.696v2.545c0,0.19,0.011,0.33,0.033,0.421c0.022,0.089,0.099,0.133,0.227,0.133
			c0.068,0,0.151-0.014,0.248-0.047v0.63C70.309,53.316,70.116,53.36,69.866,53.36 M68.728,50.868
			c-0.167,0.034-0.34,0.064-0.521,0.087c-0.183,0.023-0.364,0.049-0.55,0.076c-0.184,0.027-0.35,0.074-0.497,0.137
			c-0.146,0.063-0.265,0.156-0.358,0.274c-0.092,0.117-0.139,0.277-0.139,0.482c0,0.133,0.026,0.247,0.081,0.34
			c0.054,0.093,0.125,0.166,0.211,0.225s0.188,0.099,0.305,0.125c0.117,0.025,0.237,0.036,0.358,0.036
			c0.268,0,0.499-0.035,0.691-0.108c0.19-0.071,0.346-0.165,0.467-0.276c0.12-0.112,0.209-0.232,0.268-0.363
			c0.058-0.131,0.086-0.255,0.086-0.368v-0.831C69.026,50.778,68.893,50.835,68.728,50.868"/>
		<path fill="#717071" d="M71.969,48.312v0.782h0.021c0.335-0.601,0.871-0.898,1.604-0.898c0.325,0,0.597,0.045,0.815,0.134
			c0.216,0.09,0.392,0.214,0.525,0.371c0.133,0.161,0.229,0.352,0.282,0.57c0.054,0.22,0.083,0.463,0.083,0.73v3.252h-0.815v-3.346
			c0-0.307-0.088-0.549-0.268-0.728c-0.178-0.179-0.423-0.268-0.736-0.268c-0.249,0-0.465,0.039-0.645,0.114
			c-0.182,0.076-0.333,0.188-0.455,0.324c-0.121,0.141-0.212,0.307-0.273,0.492c-0.061,0.188-0.09,0.394-0.09,0.617v2.792h-0.813
			v-4.941L71.969,48.312L71.969,48.312L71.969,48.312z"/>
	</g>
	<path fill="#CF0F31" d="M27.921,32.635c-0.379-0.451-0.715-0.895-1.019-1.347c-0.791-1.181-1.401-2.453-1.843-3.78
		c-1.59,2.366-4.286,3.928-7.346,3.928c-4.886,0-8.86-3.975-8.86-8.862c0-4.887,3.975-8.862,8.86-8.862
		c3.06,0,5.755,1.563,7.346,3.928c0.441-1.327,1.051-2.599,1.843-3.779c0.127-0.19,0.264-0.376,0.401-0.563
		c-2.433-2.515-5.824-4.097-9.59-4.097c-7.373,0-13.373,5.999-13.373,13.372c0,7.375,6,13.373,13.373,13.373
		c1.925,0,3.748-0.423,5.402-1.158v9.611l-0.005,0.114c0,7.41-6.778,13.321-14.187,13.321v4.812
		c10.062,0,18.997-8.187,18.997-18.248C27.921,44.4,27.921,36.054,27.921,32.635z"/>
	<path fill="#CF0F31" d="M106.649,9.203c-4.089,0-7.753,1.849-10.207,4.752c-0.323,0.382-0.63,0.781-0.909,1.199
		c-1.423,2.124-2.256,4.677-2.256,7.421c0,2.744,0.834,5.295,2.256,7.421c0.279,0.418,0.586,0.816,0.909,1.199
		c2.455,2.901,6.119,4.754,10.207,4.754c7.375,0,13.373-5.999,13.373-13.374S114.023,9.203,106.649,9.203 M106.649,31.437
		c-3.492,0-6.508-2.035-7.951-4.978c-0.577-1.175-0.91-2.489-0.91-3.884c0-1.395,0.333-2.711,0.91-3.886
		c1.443-2.941,4.459-4.977,7.951-4.977c4.889,0,8.861,3.975,8.861,8.862C115.51,27.461,111.537,31.437,106.649,31.437"/>
	<path fill="#CF0F31" d="M50.202,32.693c-0.405-0.479-0.753-0.939-1.067-1.409c-1.731-2.586-2.648-5.598-2.648-8.71
		c0-0.373,0.014-0.745,0.042-1.115c0.012-0.165,0.035-0.328,0.051-0.491c0.021-0.2,0.039-0.4,0.065-0.599
		c0.032-0.218,0.074-0.434,0.115-0.65c0.025-0.138,0.048-0.275,0.077-0.411c0.054-0.253,0.118-0.504,0.187-0.753
		c0.023-0.093,0.047-0.188,0.073-0.28c0.08-0.277,0.169-0.552,0.264-0.826c0.02-0.06,0.041-0.119,0.062-0.178
		c0.107-0.294,0.222-0.587,0.347-0.875c0.014-0.033,0.028-0.066,0.043-0.099c0.134-0.306,0.277-0.607,0.432-0.905
		c0.007-0.014,0.014-0.027,0.021-0.041c0.163-0.31,0.334-0.615,0.518-0.915c0.117-0.192,0.229-0.386,0.354-0.573
		c0.128-0.191,0.267-0.381,0.407-0.571c-0.84-0.864-1.789-1.618-2.834-2.235c-1.987-1.169-4.293-1.853-6.762-1.853
		c-4.089,0-7.753,1.849-10.207,4.752c-0.324,0.382-0.63,0.781-0.911,1.199c-1.423,2.124-2.254,4.677-2.254,7.421
		c0,2.744,0.833,5.295,2.254,7.421c0.281,0.418,0.587,0.816,0.911,1.199c2.455,2.901,6.117,4.754,10.207,4.754
		c2.102,0,4.083-0.501,5.853-1.37c0.278,0.376,0.565,0.745,0.867,1.103c1.134,1.34,2.439,2.53,3.881,3.542l2.647-3.801
		C52.099,34.653,51.088,33.74,50.202,32.693z M31.995,26.459c-0.576-1.175-0.909-2.49-0.909-3.884s0.333-2.711,0.909-3.886
		c1.442-2.941,4.459-4.977,7.952-4.977c1.285,0,2.499,0.288,3.599,0.782c-1.08,2.48-1.692,5.206-1.692,8.079
		c0,2.874,0.612,5.6,1.692,8.08c-1.1,0.496-2.314,0.782-3.599,0.782C36.455,31.437,33.438,29.401,31.995,26.459z"/>
	<path fill="#CF0F31" d="M69.527,27.507c-1.59,2.365-4.287,3.93-7.345,3.93c-3.492,0-6.509-2.036-7.952-4.978
		c-0.576-1.175-0.909-2.49-0.909-3.886c0-1.395,0.333-2.709,0.909-3.885c1.444-2.942,4.46-4.977,7.952-4.977
		c1.856,0,3.574,0.583,4.997,1.563l2.591-3.683c-2.155-1.502-4.768-2.392-7.59-2.392c-4.089,0-7.753,1.85-10.208,4.751
		c-0.323,0.383-0.63,0.783-0.91,1.201c-1.423,2.124-2.255,4.676-2.255,7.42c0,2.745,0.833,5.297,2.255,7.422
		c0.28,0.418,0.587,0.815,0.91,1.199c2.455,2.901,6.118,4.752,10.208,4.752c3.767,0,7.159-1.582,9.591-4.097
		c-0.139-0.189-0.276-0.375-0.402-0.564C70.579,30.106,69.967,28.833,69.527,27.507z"/>
	<path fill="#CF0F31" d="M91.762,27.507c-1.592,2.367-4.286,3.93-7.345,3.93c-1.641,0-3.175-0.456-4.493-1.236
		c-1.489-0.881-2.694-2.181-3.461-3.741c-0.002-0.006-0.004-0.01-0.006-0.014c-0.572-1.172-0.902-2.482-0.902-3.87
		c0-1.39,0.329-2.7,0.902-3.87c0.002-0.005,0.004-0.011,0.006-0.015c0.767-1.559,1.973-2.859,3.461-3.74
		c1.319-0.78,2.852-1.237,4.493-1.237c1.938,0,3.728,0.631,5.187,1.693l2.584-3.671c-2.191-1.583-4.868-2.53-7.77-2.53
		c-2.469,0-4.775,0.683-6.762,1.853c-1.306,0.77-2.472,1.747-3.446,2.899c-0.003,0.002-0.005,0.004-0.007,0.007
		c-0.322,0.38-0.624,0.778-0.903,1.192c-1.422,2.125-2.256,4.678-2.256,7.421c0,2.743,0.833,5.295,2.256,7.421
		c0.279,0.416,0.58,0.811,0.903,1.191c0.002,0.003,0.004,0.005,0.007,0.008c0.973,1.152,2.14,2.128,3.446,2.898
		c1.987,1.171,4.294,1.856,6.762,1.856c3.766,0,7.158-1.583,9.591-4.098c-0.14-0.188-0.277-0.376-0.403-0.564
		C92.815,30.106,92.202,28.834,91.762,27.507z"/>
</g>
</svg>
