<?xml version="1.0" encoding="utf-8"?>
<!-- Generator: Adobe Illustrator 16.2.1, SVG Export Plug-In . SVG Version: 6.00 Build 0)  -->
<!DOCTYPE svg PUBLIC "-//W3C//DTD SVG 1.1//EN" "http://www.w3.org/Graphics/SVG/1.1/DTD/svg11.dtd">
<svg version="1.1" id="レイヤー_1" xmlns="http://www.w3.org/2000/svg" xmlns:xlink="http://www.w3.org/1999/xlink" x="0px"
	 y="0px" width="270px" height="70px" viewBox="0 0 270 70" enable-background="new 0 0 270 70" xml:space="preserve">
<g>
	<polygon fill="none" points="212.097,32.81 216.35,27.44 207.883,27.44 	"/>
	<path d="M236.567,35.815c0-2.578,2.091-4.668,4.669-4.668s4.669,2.09,4.669,4.668c0,1.427-0.64,2.701-1.646,3.558
		c0.726,0.072,1.466,0.152,2.222,0.239c0.773-1.066,1.23-2.378,1.23-3.797c0-3.575-2.898-6.474-6.475-6.474
		c-3.575,0-6.474,2.899-6.474,6.474c0,1.062,0.256,2.065,0.71,2.95c0.721,0.027,1.465,0.062,2.234,0.103
		C236.997,38.05,236.567,36.983,236.567,35.815z"/>
	<path d="M223.186,38.631c0.199-2.395,2.204-4.276,4.651-4.276c2.462,0,4.478,1.906,4.654,4.323
		c0.584,0.012,1.188,0.026,1.812,0.046c-0.156-3.437-2.992-6.175-6.467-6.175c-3.327,0-6.068,2.511-6.433,5.74
		c0.427,0.193,0.925,0.318,1.506,0.337C222.996,38.628,223.089,38.63,223.186,38.631z"/>
	<path fill="#D80C18" d="M227.836,34.354c-2.446,0-4.451,1.882-4.65,4.276c0.562,0.012,1.31,0.012,2.222,0.013
		c1.863,0.001,4.237-0.023,7.083,0.034C232.314,36.261,230.298,34.354,227.836,34.354z"/>
	<path d="M201.993,39.961c0,0.979-1.109,1.298-2.037,1.359v1.744c1.924-0.091,3.855-0.943,3.855-3.104
		c0-1.689,0.022-12.41,0.022-12.518l-0.94-0.002h-0.878C202.016,27.598,201.993,38.273,201.993,39.961z"/>
	<path d="M246.479,39.612c-0.755-0.087-1.496-0.167-2.222-0.239c-2.342-0.234-4.529-0.396-6.552-0.505
		c-0.769-0.041-1.514-0.075-2.234-0.103c-0.397-0.017-0.787-0.029-1.169-0.041c-0.624-0.021-1.229-0.034-1.812-0.047
		c-2.846-0.057-5.22-0.033-7.083-0.033c-0.912-0.001-1.66-0.002-2.222-0.013c-0.098-0.002-0.189-0.004-0.275-0.006
		c-0.582-0.019-1.08-0.144-1.506-0.337c-1.461-0.661-2.075-2.131-2.252-2.913c-0.373-1.655-1.557-7.854-1.449-7.816l-0.03-0.119
		h-1.323l-4.253,5.369l-4.214-5.369h-1.344l-1.304,10.193h1.829l0.854-7.677l3.792,5.182h0.708l3.954-5.188
		c0.376,1.876,0.916,4.558,1.156,5.625c0.149,0.662,0.536,1.936,1.451,3.018c0.677,0.801,1.524,1.354,2.495,1.636
		c0.437,0.126,0.897,0.198,1.38,0.213c0.161,0.005,0.341,0.008,0.537,0.011c0.543,0.008,1.217,0.008,2.014,0.009
		c1.823,0.001,4.118-0.03,6.866,0.015c0.6,0.01,1.222,0.023,1.864,0.042c0.881,0.024,1.804,0.059,2.766,0.105
		c2.385,0.113,5.016,0.3,7.885,0.604c4.188,0.444,8.884,1.139,14.066,2.222v-1.856C254.383,40.682,250.248,40.05,246.479,39.612z"/>
	<polygon fill="#E1003B" points="202.017,27.44 202.894,27.44 202.017,27.439 	"/>
	<g>
		<path fill="#428AB7" d="M227.836,43.691c-1.482,0-2.804-0.692-3.658-1.771c-0.522-0.002-0.966-0.007-1.322-0.018
			c-0.295-0.009-0.583-0.039-0.862-0.091c1.042,2.179,3.267,3.685,5.843,3.685c2.516,0,4.695-1.436,5.767-3.531
			c-0.733-0.019-1.438-0.03-2.113-0.038C230.636,43.002,229.316,43.691,227.836,43.691z"/>
		<path fill="#7EBBE1" d="M225.406,41.923c-0.449,0-0.858,0-1.229-0.002c0.854,1.078,2.176,1.771,3.658,1.771
			c1.48,0,2.799-0.689,3.653-1.764C229.086,41.898,227.054,41.924,225.406,41.923z"/>
	</g>
	<g>
		<path d="M254.85,38.488c-2.578,0-4.669-2.09-4.669-4.668s2.09-4.669,4.669-4.669c1.589,0,2.99,0.794,3.834,2.006l1.292-1.292
			c-1.185-1.532-3.04-2.52-5.126-2.52c-3.576,0-6.475,2.898-6.475,6.474c0,3.576,2.898,6.475,6.475,6.475
			c2.08,0,3.931-0.981,5.115-2.507l-1.291-1.291C257.829,37.7,256.432,38.488,254.85,38.488z"/>
	</g>
</g>
<text transform="matrix(1 0 0 1 135.3584 41.001)"  font-family="'メイリオ','Meiryo','ヒラギノ角ゴ ProN W3','Hiragino Kaku Gothic ProN','ＭＳ Ｐゴシック', 'MS P Gothic', Verdana, Arial, Helvetica, sans-serif;" font-size="10">Certified by</text>
<g>
	<g>
		<path fill="#717071" d="M118.433,50.573c-0.572,0.681-1.426,1.119-2.383,1.119c-1.139,0-2.133-0.614-2.681-1.527
			c-0.281-0.467-0.446-1.016-0.446-1.604c0-0.439,0.093-0.855,0.259-1.237c0.055-0.124,0.119-0.247,0.188-0.366
			c0.139-0.227,0.305-0.438,0.49-0.621c0.566-0.557,1.337-0.901,2.192-0.901c0.957,0,1.81,0.438,2.382,1.119
			c0.207-0.477,0.479-0.916,0.82-1.307c0.022-0.026,0.047-0.047,0.069-0.072c-0.376-0.363-0.808-0.667-1.287-0.892
			c-0.605-0.282-1.277-0.441-1.985-0.441c-0.532,0-1.044,0.09-1.522,0.253c-0.708,0.243-1.336,0.655-1.85,1.182
			c-0.062,0.063-0.127,0.125-0.185,0.19c-0.379,0.436-0.679,0.938-0.877,1.489c-0.046,0.126-0.085,0.254-0.121,0.384
			c-0.016,0.057-0.027,0.113-0.041,0.172c-0.08,0.339-0.125,0.688-0.125,1.048c0,0.364,0.045,0.714,0.125,1.051
			c0.046,0.189,0.096,0.374,0.161,0.553c0.2,0.553,0.5,1.058,0.877,1.49c0.058,0.068,0.123,0.13,0.185,0.192
			c0.514,0.526,1.143,0.939,1.85,1.183c0.479,0.163,0.989,0.253,1.522,0.253c0.708,0,1.38-0.159,1.985-0.443
			c0.479-0.224,0.91-0.526,1.287-0.89c-0.022-0.025-0.048-0.047-0.069-0.071C118.912,51.487,118.64,51.048,118.433,50.573"/>
		<path fill="#717071" d="M108.189,43.845c-1.419,0-2.69,0.631-3.556,1.626c-0.379,0.435-0.678,0.938-0.877,1.487
			c-0.181,0.503-0.284,1.042-0.284,1.605s0.104,1.104,0.284,1.602c0.201,0.554,0.5,1.058,0.877,1.489
			c0.865,0.995,2.136,1.629,3.556,1.629c2.603,0,4.721-2.119,4.721-4.722C112.909,45.962,110.792,43.845,108.189,43.845
			 M108.189,51.693c-1.138,0-2.132-0.614-2.682-1.526c-0.281-0.468-0.445-1.017-0.445-1.603c0-0.588,0.164-1.134,0.445-1.604
			c0.549-0.91,1.543-1.522,2.682-1.522c1.724,0,3.127,1.403,3.127,3.127C111.315,50.289,109.914,51.693,108.189,51.693"/>
		<path fill="#717071" d="M100.351,43.845c-1.418,0-2.689,0.631-3.555,1.626c-0.378,0.435-0.677,0.938-0.876,1.487
			c-0.182,0.503-0.286,1.042-0.286,1.605s0.105,1.104,0.286,1.602c0.199,0.554,0.499,1.058,0.876,1.489
			c0.866,0.995,2.137,1.629,3.555,1.629c2.603,0,4.721-2.119,4.721-4.722C105.072,45.962,102.953,43.845,100.351,43.845
			 M100.351,51.693c-1.137,0-2.132-0.614-2.679-1.526c-0.282-0.468-0.446-1.017-0.446-1.603c0-0.588,0.164-1.134,0.446-1.604
			c0.547-0.91,1.542-1.522,2.679-1.522c1.726,0,3.128,1.403,3.128,3.127C103.479,50.289,102.077,51.693,100.351,51.693"/>
		<path fill="#717071" d="M92.172,43.952c-1.726,0-3.246,0.895-4.125,2.247c-0.877-1.352-2.398-2.247-4.124-2.247
			c-2.713,0-4.923,2.208-4.923,4.92v4.412h1.594v-4.412c0-1.834,1.492-3.327,3.329-3.327c1.835,0,3.328,1.493,3.328,3.327v4.412
			h1.594v-4.412c0-1.834,1.492-3.327,3.328-3.327c1.836,0,3.329,1.493,3.329,3.327v4.412h1.593v-4.412
			C97.095,46.159,94.887,43.952,92.172,43.952"/>
		<polygon fill="#717071" points="31.466,47.192 31.466,46.429 36.924,46.429 36.924,47.192 34.647,47.192 34.647,53.255 
			33.739,53.255 33.739,47.192 		"/>
		<path fill="#717071" d="M38.357,46.429v2.609h0.019c0.063-0.153,0.152-0.28,0.269-0.387c0.115-0.104,0.243-0.191,0.388-0.26
			c0.144-0.065,0.292-0.115,0.448-0.146c0.157-0.031,0.307-0.051,0.456-0.051c0.325,0,0.594,0.047,0.812,0.136
			c0.216,0.091,0.393,0.214,0.527,0.371c0.132,0.161,0.228,0.351,0.281,0.571c0.055,0.221,0.081,0.463,0.081,0.731v3.251h-0.812
			v-3.346c0-0.307-0.089-0.547-0.268-0.728c-0.179-0.177-0.425-0.268-0.736-0.268c-0.249,0-0.465,0.039-0.645,0.114
			c-0.183,0.075-0.334,0.187-0.455,0.324c-0.123,0.141-0.212,0.307-0.273,0.492c-0.06,0.189-0.09,0.395-0.09,0.618v2.791h-0.812
			v-6.825H38.357L38.357,46.429z"/>
		<path fill="#717071" d="M46.359,52.938c-0.37,0.28-0.835,0.422-1.395,0.422c-0.396,0-0.739-0.064-1.028-0.191
			c-0.292-0.129-0.534-0.307-0.733-0.535c-0.197-0.229-0.345-0.504-0.444-0.822c-0.099-0.318-0.155-0.666-0.167-1.041
			c0-0.376,0.058-0.721,0.172-1.033c0.115-0.312,0.276-0.582,0.482-0.812c0.207-0.229,0.453-0.407,0.736-0.536
			c0.285-0.127,0.596-0.191,0.933-0.191c0.44,0,0.805,0.093,1.095,0.274c0.29,0.183,0.522,0.41,0.698,0.694
			c0.173,0.278,0.294,0.585,0.363,0.915c0.065,0.333,0.093,0.647,0.081,0.946h-3.701c-0.007,0.218,0.019,0.425,0.078,0.618
			c0.058,0.194,0.148,0.365,0.276,0.518c0.128,0.147,0.29,0.268,0.487,0.357c0.197,0.089,0.431,0.132,0.698,0.132
			c0.343,0,0.627-0.079,0.846-0.238c0.221-0.158,0.366-0.4,0.436-0.726h0.804C46.967,52.241,46.728,52.658,46.359,52.938
			 M46.163,49.766c-0.074-0.173-0.172-0.321-0.297-0.444c-0.125-0.124-0.272-0.223-0.441-0.296c-0.167-0.073-0.355-0.11-0.559-0.11
			c-0.21,0-0.4,0.037-0.568,0.11c-0.169,0.073-0.315,0.174-0.437,0.301c-0.12,0.128-0.216,0.274-0.285,0.443
			c-0.071,0.17-0.111,0.35-0.125,0.541h2.84C46.279,50.116,46.237,49.938,46.163,49.766"/>
		<path fill="#717071" d="M54.156,52.229c-0.067,0.226-0.179,0.424-0.335,0.6c-0.156,0.175-0.363,0.314-0.622,0.421
			c-0.258,0.104-0.578,0.157-0.96,0.157c-0.636,0-1.127-0.167-1.472-0.502c-0.345-0.335-0.517-0.827-0.517-1.476v-0.421h0.906v0.286
			c0,0.196,0.016,0.379,0.047,0.544c0.031,0.167,0.088,0.309,0.168,0.431c0.08,0.122,0.191,0.214,0.336,0.282
			c0.143,0.065,0.325,0.099,0.548,0.099c0.415,0,0.699-0.109,0.856-0.333c0.154-0.221,0.235-0.522,0.235-0.898V46.43h0.907v5.123
			C54.255,51.782,54.223,52.007,54.156,52.229"/>
		<path fill="#717071" d="M59.409,53.36c-0.209,0-0.377-0.061-0.502-0.178c-0.123-0.118-0.187-0.313-0.187-0.578
			c-0.224,0.267-0.482,0.46-0.779,0.578c-0.294,0.117-0.617,0.178-0.959,0.178c-0.225,0-0.435-0.024-0.632-0.074
			c-0.197-0.047-0.37-0.126-0.521-0.236c-0.15-0.11-0.268-0.256-0.354-0.432c-0.086-0.175-0.128-0.388-0.128-0.636
			c0-0.28,0.046-0.509,0.143-0.688c0.095-0.179,0.221-0.323,0.378-0.437c0.156-0.112,0.333-0.193,0.535-0.253
			c0.201-0.06,0.406-0.104,0.617-0.145c0.224-0.044,0.436-0.078,0.636-0.101c0.201-0.021,0.377-0.053,0.531-0.096
			c0.153-0.042,0.274-0.104,0.362-0.182c0.089-0.079,0.135-0.196,0.135-0.351c0-0.178-0.035-0.318-0.101-0.43
			c-0.065-0.107-0.154-0.19-0.257-0.247c-0.105-0.059-0.225-0.097-0.354-0.115c-0.13-0.02-0.259-0.028-0.386-0.028
			c-0.344,0-0.631,0.064-0.861,0.194c-0.229,0.131-0.353,0.38-0.373,0.741h-0.812c0.013-0.307,0.077-0.564,0.192-0.774
			c0.114-0.211,0.267-0.382,0.457-0.513c0.192-0.13,0.411-0.224,0.66-0.282c0.25-0.054,0.51-0.086,0.783-0.086
			c0.224,0,0.444,0.017,0.664,0.05c0.222,0.031,0.42,0.097,0.598,0.193c0.178,0.101,0.323,0.238,0.431,0.417
			c0.109,0.179,0.163,0.409,0.163,0.696v2.545c0,0.19,0.011,0.33,0.033,0.421c0.022,0.089,0.098,0.133,0.226,0.133
			c0.069,0,0.152-0.014,0.249-0.047v0.63C59.851,53.316,59.658,53.36,59.409,53.36 M58.271,50.868
			c-0.167,0.034-0.341,0.064-0.522,0.087c-0.182,0.023-0.364,0.049-0.549,0.076c-0.186,0.027-0.351,0.074-0.498,0.137
			c-0.146,0.063-0.266,0.156-0.359,0.274c-0.093,0.117-0.137,0.277-0.137,0.482c0,0.133,0.025,0.247,0.081,0.34
			c0.054,0.093,0.125,0.166,0.209,0.225c0.086,0.059,0.189,0.099,0.307,0.125c0.118,0.025,0.236,0.036,0.357,0.036
			c0.268,0,0.499-0.035,0.689-0.108c0.19-0.071,0.347-0.165,0.468-0.276c0.12-0.112,0.211-0.232,0.268-0.363
			c0.057-0.131,0.086-0.255,0.086-0.368v-0.831C58.57,50.778,58.437,50.835,58.271,50.868"/>
		<path fill="#717071" d="M61.59,48.312v0.668h0.02c0.132-0.273,0.343-0.474,0.628-0.598c0.287-0.123,0.604-0.188,0.948-0.188
			c0.382,0,0.714,0.071,0.999,0.212c0.284,0.142,0.52,0.328,0.706,0.567c0.187,0.24,0.331,0.517,0.426,0.827
			c0.095,0.312,0.144,0.645,0.144,0.994s-0.047,0.681-0.14,0.993c-0.091,0.313-0.231,0.586-0.42,0.818
			c-0.188,0.232-0.423,0.415-0.708,0.549c-0.284,0.135-0.614,0.202-0.989,0.202c-0.121,0-0.257-0.014-0.406-0.04
			c-0.149-0.024-0.298-0.065-0.443-0.124c-0.147-0.057-0.286-0.135-0.415-0.233c-0.133-0.099-0.241-0.222-0.33-0.367h-0.02v2.543
			h-0.814V48.31h0.813V48.312L61.59,48.312z M64.508,50.065c-0.061-0.219-0.153-0.415-0.276-0.587
			c-0.124-0.174-0.284-0.309-0.479-0.411c-0.194-0.102-0.423-0.152-0.684-0.152c-0.273,0-0.506,0.055-0.698,0.162
			c-0.19,0.108-0.347,0.251-0.467,0.426c-0.122,0.176-0.21,0.376-0.265,0.599c-0.053,0.223-0.08,0.449-0.08,0.678
			c0,0.244,0.029,0.477,0.084,0.704c0.06,0.227,0.15,0.424,0.274,0.596c0.123,0.172,0.285,0.312,0.483,0.416
			c0.197,0.105,0.437,0.157,0.716,0.157c0.281,0,0.513-0.054,0.702-0.162c0.188-0.105,0.339-0.251,0.453-0.43
			c0.115-0.178,0.2-0.383,0.25-0.612c0.05-0.229,0.075-0.465,0.075-0.707C64.6,50.512,64.57,50.286,64.508,50.065"/>
		<path fill="#717071" d="M70.212,53.36c-0.21,0-0.377-0.061-0.502-0.178c-0.124-0.118-0.187-0.313-0.187-0.578
			c-0.224,0.267-0.483,0.46-0.779,0.578c-0.295,0.117-0.616,0.178-0.96,0.178c-0.223,0-0.433-0.024-0.631-0.074
			c-0.197-0.047-0.371-0.126-0.521-0.236c-0.149-0.11-0.267-0.256-0.354-0.432c-0.087-0.175-0.129-0.388-0.129-0.636
			c0-0.28,0.049-0.509,0.144-0.688c0.096-0.179,0.222-0.323,0.377-0.437c0.156-0.112,0.336-0.193,0.537-0.253
			c0.2-0.06,0.407-0.104,0.616-0.145c0.224-0.044,0.435-0.078,0.636-0.101c0.2-0.021,0.376-0.053,0.53-0.096
			c0.152-0.042,0.273-0.104,0.363-0.182c0.089-0.079,0.134-0.196,0.134-0.351c0-0.178-0.032-0.318-0.102-0.43
			c-0.065-0.107-0.151-0.19-0.258-0.247c-0.105-0.059-0.223-0.097-0.354-0.115c-0.13-0.02-0.259-0.028-0.385-0.028
			c-0.344,0-0.632,0.064-0.862,0.194c-0.229,0.131-0.353,0.38-0.372,0.741h-0.813c0.012-0.307,0.076-0.564,0.191-0.774
			c0.113-0.211,0.267-0.382,0.46-0.513c0.188-0.13,0.409-0.224,0.658-0.282c0.25-0.054,0.51-0.086,0.784-0.086
			c0.223,0,0.442,0.017,0.665,0.05c0.219,0.031,0.419,0.097,0.597,0.193c0.18,0.101,0.322,0.238,0.431,0.417
			c0.108,0.179,0.162,0.409,0.162,0.696v2.545c0,0.19,0.011,0.33,0.033,0.421c0.022,0.089,0.099,0.133,0.227,0.133
			c0.068,0,0.151-0.014,0.248-0.047v0.63C70.655,53.316,70.462,53.36,70.212,53.36 M69.074,50.868
			c-0.167,0.034-0.34,0.064-0.521,0.087c-0.183,0.023-0.364,0.049-0.55,0.076c-0.184,0.027-0.35,0.074-0.497,0.137
			c-0.146,0.063-0.265,0.156-0.358,0.274c-0.092,0.117-0.139,0.277-0.139,0.482c0,0.133,0.026,0.247,0.081,0.34
			c0.054,0.093,0.125,0.166,0.211,0.225s0.188,0.099,0.305,0.125c0.117,0.025,0.237,0.036,0.358,0.036
			c0.268,0,0.499-0.035,0.691-0.108c0.19-0.071,0.346-0.165,0.467-0.276c0.12-0.112,0.209-0.232,0.268-0.363
			c0.058-0.131,0.086-0.255,0.086-0.368v-0.831C69.373,50.778,69.239,50.835,69.074,50.868"/>
		<path fill="#717071" d="M72.315,48.312v0.782h0.021c0.335-0.601,0.871-0.898,1.604-0.898c0.325,0,0.597,0.045,0.815,0.134
			c0.216,0.09,0.392,0.214,0.525,0.371c0.133,0.161,0.229,0.352,0.282,0.57c0.054,0.22,0.083,0.463,0.083,0.73v3.252h-0.815v-3.346
			c0-0.307-0.088-0.549-0.268-0.728c-0.178-0.179-0.423-0.268-0.736-0.268c-0.249,0-0.465,0.039-0.645,0.114
			c-0.182,0.076-0.333,0.188-0.455,0.324c-0.121,0.141-0.212,0.307-0.273,0.492c-0.061,0.188-0.09,0.394-0.09,0.617v2.792h-0.813
			v-4.941L72.315,48.312L72.315,48.312L72.315,48.312z"/>
	</g>
	<path fill="#CF0F31" d="M28.268,32.635c-0.379-0.451-0.715-0.895-1.019-1.347c-0.791-1.181-1.401-2.453-1.843-3.78
		c-1.59,2.366-4.286,3.928-7.346,3.928c-4.886,0-8.86-3.975-8.86-8.862c0-4.887,3.975-8.862,8.86-8.862
		c3.06,0,5.755,1.563,7.346,3.928c0.441-1.327,1.051-2.599,1.843-3.779c0.127-0.19,0.264-0.376,0.401-0.563
		c-2.433-2.515-5.824-4.097-9.59-4.097c-7.373,0-13.373,5.999-13.373,13.372c0,7.375,6,13.373,13.373,13.373
		c1.925,0,3.748-0.423,5.402-1.158v9.611l-0.005,0.114c0,7.41-6.778,13.321-14.187,13.321v4.812
		c10.062,0,18.997-8.187,18.997-18.248C28.268,44.4,28.268,36.054,28.268,32.635z"/>
	<path fill="#CF0F31" d="M106.995,9.203c-4.089,0-7.753,1.849-10.207,4.752c-0.323,0.382-0.63,0.781-0.909,1.199
		c-1.423,2.124-2.256,4.677-2.256,7.421c0,2.744,0.834,5.295,2.256,7.421c0.279,0.418,0.586,0.816,0.909,1.199
		c2.455,2.901,6.119,4.754,10.207,4.754c7.375,0,13.373-5.999,13.373-13.374S114.37,9.203,106.995,9.203 M106.995,31.437
		c-3.492,0-6.508-2.035-7.951-4.978c-0.577-1.175-0.91-2.489-0.91-3.884c0-1.395,0.333-2.711,0.91-3.886
		c1.443-2.941,4.459-4.977,7.951-4.977c4.889,0,8.861,3.975,8.861,8.862C115.856,27.461,111.883,31.437,106.995,31.437"/>
	<path fill="#CF0F31" d="M50.548,32.693c-0.405-0.479-0.753-0.939-1.067-1.409c-1.731-2.586-2.648-5.598-2.648-8.71
		c0-0.373,0.014-0.745,0.042-1.115c0.012-0.165,0.035-0.328,0.051-0.491c0.021-0.2,0.039-0.4,0.065-0.599
		c0.032-0.218,0.074-0.434,0.115-0.65c0.025-0.138,0.048-0.275,0.077-0.411c0.054-0.253,0.118-0.504,0.187-0.753
		c0.023-0.093,0.047-0.188,0.073-0.28c0.08-0.277,0.169-0.552,0.264-0.826c0.02-0.06,0.041-0.119,0.062-0.178
		c0.107-0.294,0.222-0.587,0.347-0.875c0.014-0.033,0.028-0.066,0.043-0.099c0.134-0.306,0.277-0.607,0.432-0.905
		c0.007-0.014,0.014-0.027,0.021-0.041c0.163-0.31,0.334-0.615,0.518-0.915c0.117-0.192,0.229-0.386,0.354-0.573
		c0.128-0.191,0.267-0.381,0.407-0.571c-0.84-0.864-1.789-1.618-2.834-2.235c-1.987-1.169-4.293-1.853-6.762-1.853
		c-4.089,0-7.753,1.849-10.207,4.752c-0.324,0.382-0.63,0.781-0.911,1.199c-1.423,2.124-2.254,4.677-2.254,7.421
		c0,2.744,0.833,5.295,2.254,7.421c0.281,0.418,0.587,0.816,0.911,1.199c2.455,2.901,6.117,4.754,10.207,4.754
		c2.102,0,4.083-0.501,5.853-1.37c0.278,0.376,0.565,0.745,0.867,1.103c1.134,1.34,2.439,2.53,3.881,3.542l2.647-3.801
		C52.445,34.653,51.434,33.74,50.548,32.693z M32.341,26.459c-0.576-1.175-0.909-2.49-0.909-3.884s0.333-2.711,0.909-3.886
		c1.442-2.941,4.459-4.977,7.952-4.977c1.285,0,2.499,0.288,3.599,0.782c-1.08,2.48-1.692,5.206-1.692,8.079
		c0,2.874,0.612,5.6,1.692,8.08c-1.1,0.496-2.314,0.782-3.599,0.782C36.801,31.437,33.784,29.401,32.341,26.459z"/>
	<path fill="#CF0F31" d="M69.873,27.507c-1.59,2.365-4.287,3.93-7.345,3.93c-3.492,0-6.509-2.036-7.952-4.978
		c-0.576-1.175-0.909-2.49-0.909-3.886c0-1.395,0.333-2.709,0.909-3.885c1.444-2.942,4.46-4.977,7.952-4.977
		c1.856,0,3.574,0.583,4.997,1.563l2.591-3.683c-2.155-1.502-4.768-2.392-7.59-2.392c-4.089,0-7.753,1.85-10.208,4.751
		c-0.323,0.383-0.63,0.783-0.91,1.201c-1.423,2.124-2.255,4.676-2.255,7.42c0,2.745,0.833,5.297,2.255,7.422
		c0.28,0.418,0.587,0.815,0.91,1.199c2.455,2.901,6.118,4.752,10.208,4.752c3.767,0,7.159-1.582,9.591-4.097
		c-0.139-0.189-0.276-0.375-0.402-0.564C70.925,30.106,70.313,28.833,69.873,27.507z"/>
	<path fill="#CF0F31" d="M92.108,27.507c-1.592,2.367-4.286,3.93-7.345,3.93c-1.641,0-3.175-0.456-4.493-1.236
		c-1.489-0.881-2.694-2.181-3.461-3.741c-0.002-0.006-0.004-0.01-0.006-0.014c-0.572-1.172-0.902-2.482-0.902-3.87
		c0-1.39,0.329-2.7,0.902-3.87c0.002-0.005,0.004-0.011,0.006-0.015c0.767-1.559,1.973-2.859,3.461-3.74
		c1.319-0.78,2.852-1.237,4.493-1.237c1.938,0,3.728,0.631,5.187,1.693l2.584-3.671c-2.191-1.583-4.868-2.53-7.77-2.53
		c-2.469,0-4.775,0.683-6.762,1.853c-1.306,0.77-2.472,1.747-3.446,2.899c-0.003,0.002-0.005,0.004-0.007,0.007
		c-0.322,0.38-0.624,0.778-0.903,1.192c-1.422,2.125-2.256,4.678-2.256,7.421c0,2.743,0.833,5.295,2.256,7.421
		c0.279,0.416,0.58,0.811,0.903,1.191c0.002,0.003,0.004,0.005,0.007,0.008c0.973,1.152,2.14,2.128,3.446,2.898
		c1.987,1.171,4.294,1.856,6.762,1.856c3.766,0,7.158-1.583,9.591-4.098c-0.14-0.188-0.277-0.376-0.403-0.564
		C93.161,30.106,92.548,28.834,92.108,27.507z"/>
</g>
</svg>
